<svg fill="none" height="40" viewBox="0 0 357 40" width="357" xmlns="http://www.w3.org/2000/svg" xmlns:xlink="http://www.w3.org/1999/xlink"><mask id="a" fill="#000" height="40" maskUnits="userSpaceOnUse" width="357" x="0" y="0"><path d="m0 0h357v40h-357z" fill="#fff"/><path d="m1 19.624c0-2.4.448-4.672 1.344-6.816.928-2.144 2.208-4.048 3.84-5.712s3.52-2.96 5.664-3.888c2.144-.96 4.448-1.44 6.912-1.44 2.432 0 4.72.48 6.864 1.44 2.144.928 4.048 2.224 5.712 3.888s2.96 3.568 3.888 5.712 1.392 4.416 1.392 6.816c0 2.464-.464 4.768-1.392 6.912s-2.224 4.032-3.888 5.664c-1.632 1.632-3.536 2.912-5.712 3.84-2.144.896-4.432 1.344-6.864 1.344-2.464 0-4.768-.448-6.912-1.344s-4.032-2.144-5.664-3.744c-1.632-1.632-2.912-3.52-3.84-5.664-.896-2.176-1.344-4.512-1.344-7.008zm5.28 0c0 1.792.32 3.472.96 5.04.672 1.536 1.584 2.896 2.736 4.08 1.152 1.152 2.48 2.064 3.984 2.736 1.536.64 3.184.96 4.944.96 1.728 0 3.344-.32 4.848-.96 1.504-.672 2.816-1.584 3.936-2.736 1.152-1.184 2.048-2.544 2.688-4.08.64-1.568.96-3.248.96-5.04s-.336-3.456-1.008-4.992c-.64-1.568-1.536-2.944-2.688-4.128-1.12-1.184-2.448-2.112-3.984-2.784-1.504-.672-3.12-1.008-4.848-1.008-1.792 0-3.44.336-4.944 1.008s-2.832 1.6-3.984 2.784-2.048 2.56-2.688 4.128c-.608 1.568-.912 3.232-.912 4.992z" fill="#000"/><path d="m88.0934 38.2-26.832-26.64 1.488.48.144 24.96h-5.184v-35.952h.24l26.496 26.688-1.2-.336-.096-25.248h5.088v36.048z" fill="#000"/><path d="m109.349 19.624c0-2.4.448-4.672 1.344-6.816.928-2.144 2.208-4.048 3.84-5.712s3.52-2.96 5.664-3.888c2.144-.96 4.448-1.44 6.912-1.44 2.432 0 4.72.48 6.864 1.44 2.144.928 4.048 2.224 5.712 3.888s2.96 3.568 3.888 5.712 1.392 4.416 1.392 6.816c0 2.464-.464 4.768-1.392 6.912s-2.224 4.032-3.888 5.664c-1.632 1.632-3.536 2.912-5.712 3.84-2.144.896-4.432 1.344-6.864 1.344-2.464 0-4.768-.448-6.912-1.344s-4.032-2.144-5.664-3.744c-1.632-1.632-2.912-3.52-3.84-5.664-.896-2.176-1.344-4.512-1.344-7.008zm5.28 0c0 1.792.32 3.472.96 5.04.672 1.536 1.584 2.896 2.736 4.08 1.152 1.152 2.48 2.064 3.984 2.736 1.536.64 3.184.96 4.944.96 1.728 0 3.344-.32 4.848-.96 1.504-.672 2.816-1.584 3.936-2.736 1.152-1.184 2.048-2.544 2.688-4.08.64-1.568.96-3.248.96-5.04s-.336-3.456-1.008-4.992c-.64-1.568-1.536-2.944-2.688-4.128-1.12-1.184-2.448-2.112-3.984-2.784-1.504-.672-3.12-1.008-4.848-1.008-1.792 0-3.44.336-4.944 1.008s-2.832 1.6-3.984 2.784-2.048 2.56-2.688 4.128c-.608 1.568-.912 3.232-.912 4.992z" fill="#000"/><path d="m166.058 37v-36h.048l18.528 26.256-2.208-.48 18.432-25.776h.096v36h-5.088v-24.432l.336 2.64-12.864 18.192h-.096l-13.104-18.192.864-2.4v24.192z" fill="#000"/><path d="m224.17 2.152h5.136v34.848h-5.136z" fill="#000"/><path d="m278.196 34.36c-.512.352-1.28.784-2.304 1.296-.992.48-2.176.896-3.552 1.248-1.344.352-2.832.512-4.464.48-2.72-.032-5.168-.512-7.344-1.44-2.144-.928-3.968-2.192-5.472-3.792-1.504-1.632-2.672-3.488-3.504-5.568-.8-2.112-1.2-4.352-1.2-6.72 0-2.624.416-5.024 1.248-7.2.832-2.208 2.016-4.128 3.552-5.76 1.568-1.632 3.392-2.896 5.472-3.792 2.112-.896 4.416-1.344 6.912-1.344 2.144 0 4.08.288 5.808.864s3.184 1.248 4.368 2.016l-2.016 4.8c-.928-.64-2.08-1.248-3.456-1.824-1.344-.608-2.848-.912-4.512-.912-1.632 0-3.184.336-4.656 1.008-1.44.64-2.72 1.552-3.84 2.736-1.088 1.152-1.952 2.512-2.592 4.08-.64 1.536-.96 3.216-.96 5.04 0 1.856.288 3.568.864 5.136s1.392 2.928 2.448 4.08c1.088 1.152 2.384 2.048 3.888 2.688s3.2.96 5.088.96c1.792 0 3.36-.272 4.704-.816 1.376-.544 2.496-1.168 3.36-1.872z" fill="#000"/><path d="m327.267 2.152v34.848h-5.136v-15.024h-17.664v15.024h-5.136v-34.848h5.136v14.928h17.664v-14.928z" fill="#000"/><path d="m350.506 2.152h5.136v34.848h-5.136z" fill="#000"/></mask><g stroke="#9ed0e0" stroke-width="2"><path d="m1 19.624c0-2.4.448-4.672 1.344-6.816.928-2.144 2.208-4.048 3.84-5.712s3.52-2.96 5.664-3.888c2.144-.96 4.448-1.44 6.912-1.44 2.432 0 4.72.48 6.864 1.44 2.144.928 4.048 2.224 5.712 3.888s2.96 3.568 3.888 5.712 1.392 4.416 1.392 6.816c0 2.464-.464 4.768-1.392 6.912s-2.224 4.032-3.888 5.664c-1.632 1.632-3.536 2.912-5.712 3.84-2.144.896-4.432 1.344-6.864 1.344-2.464 0-4.768-.448-6.912-1.344s-4.032-2.144-5.664-3.744c-1.632-1.632-2.912-3.52-3.84-5.664-.896-2.176-1.344-4.512-1.344-7.008zm5.28 0c0 1.792.32 3.472.96 5.04.672 1.536 1.584 2.896 2.736 4.08 1.152 1.152 2.48 2.064 3.984 2.736 1.536.64 3.184.96 4.944.96 1.728 0 3.344-.32 4.848-.96 1.504-.672 2.816-1.584 3.936-2.736 1.152-1.184 2.048-2.544 2.688-4.08.64-1.568.96-3.248.96-5.04s-.336-3.456-1.008-4.992c-.64-1.568-1.536-2.944-2.688-4.128-1.12-1.184-2.448-2.112-3.984-2.784-1.504-.672-3.12-1.008-4.848-1.008-1.792 0-3.44.336-4.944 1.008s-2.832 1.6-3.984 2.784-2.048 2.56-2.688 4.128c-.608 1.568-.912 3.232-.912 4.992z" mask="url(#a)"/><path d="m88.0934 38.2-26.832-26.64 1.488.48.144 24.96h-5.184v-35.952h.24l26.496 26.688-1.2-.336-.096-25.248h5.088v36.048z" mask="url(#a)"/><path d="m109.349 19.624c0-2.4.448-4.672 1.344-6.816.928-2.144 2.208-4.048 3.84-5.712s3.52-2.96 5.664-3.888c2.144-.96 4.448-1.44 6.912-1.44 2.432 0 4.72.48 6.864 1.44 2.144.928 4.048 2.224 5.712 3.888s2.96 3.568 3.888 5.712 1.392 4.416 1.392 6.816c0 2.464-.464 4.768-1.392 6.912s-2.224 4.032-3.888 5.664c-1.632 1.632-3.536 2.912-5.712 3.84-2.144.896-4.432 1.344-6.864 1.344-2.464 0-4.768-.448-6.912-1.344s-4.032-2.144-5.664-3.744c-1.632-1.632-2.912-3.52-3.84-5.664-.896-2.176-1.344-4.512-1.344-7.008zm5.28 0c0 1.792.32 3.472.96 5.04.672 1.536 1.584 2.896 2.736 4.08 1.152 1.152 2.48 2.064 3.984 2.736 1.536.64 3.184.96 4.944.96 1.728 0 3.344-.32 4.848-.96 1.504-.672 2.816-1.584 3.936-2.736 1.152-1.184 2.048-2.544 2.688-4.08.64-1.568.96-3.248.96-5.04s-.336-3.456-1.008-4.992c-.64-1.568-1.536-2.944-2.688-4.128-1.12-1.184-2.448-2.112-3.984-2.784-1.504-.672-3.12-1.008-4.848-1.008-1.792 0-3.44.336-4.944 1.008s-2.832 1.6-3.984 2.784-2.048 2.56-2.688 4.128c-.608 1.568-.912 3.232-.912 4.992z" mask="url(#a)"/><path d="m166.058 37v-36h.048l18.528 26.256-2.208-.48 18.432-25.776h.096v36h-5.088v-24.432l.336 2.64-12.864 18.192h-.096l-13.104-18.192.864-2.4v24.192z" mask="url(#a)"/><path d="m224.17 2.152h5.136v34.848h-5.136z" mask="url(#a)"/><path d="m278.196 34.36c-.512.352-1.28.784-2.304 1.296-.992.48-2.176.896-3.552 1.248-1.344.352-2.832.512-4.464.48-2.72-.032-5.168-.512-7.344-1.44-2.144-.928-3.968-2.192-5.472-3.792-1.504-1.632-2.672-3.488-3.504-5.568-.8-2.112-1.2-4.352-1.2-6.72 0-2.624.416-5.024 1.248-7.2.832-2.208 2.016-4.128 3.552-5.76 1.568-1.632 3.392-2.896 5.472-3.792 2.112-.896 4.416-1.344 6.912-1.344 2.144 0 4.08.288 5.808.864s3.184 1.248 4.368 2.016l-2.016 4.8c-.928-.64-2.08-1.248-3.456-1.824-1.344-.608-2.848-.912-4.512-.912-1.632 0-3.184.336-4.656 1.008-1.44.64-2.72 1.552-3.84 2.736-1.088 1.152-1.952 2.512-2.592 4.08-.64 1.536-.96 3.216-.96 5.04 0 1.856.288 3.568.864 5.136s1.392 2.928 2.448 4.08c1.088 1.152 2.384 2.048 3.888 2.688s3.2.96 5.088.96c1.792 0 3.36-.272 4.704-.816 1.376-.544 2.496-1.168 3.36-1.872z" mask="url(#a)"/><path d="m327.267 2.152v34.848h-5.136v-15.024h-17.664v15.024h-5.136v-34.848h5.136v14.928h17.664v-14.928z" mask="url(#a)"/><path d="m350.506 2.152h5.136v34.848h-5.136z" mask="url(#a)"/></g></svg>