<svg fill="none" height="97" viewBox="0 0 891 97" width="891" xmlns="http://www.w3.org/2000/svg" xmlns:xlink="http://www.w3.org/1999/xlink"><mask id="a" fill="#fff"><path clip-rule="evenodd" d="m3.51953 30.7372.00502-.0116c2.41728-5.5848 5.75527-10.5503 10.00755-14.886 4.2586-4.3421 9.1901-7.72799 14.7821-10.15011 5.6263-2.5173 11.6625-3.76949 18.0858-3.76949 6.3473 0 12.3431 1.25375 17.9661 3.7696 5.5882 2.42051 10.5542 5.8023 14.8881 10.1362 4.3369 4.3369 7.7204 9.3068 10.1412 14.8998 2.4316 5.6177 3.6446 11.5688 3.6446 17.8344 0 6.4181-1.2101 12.4501-3.6446 18.0745-2.4212 5.5938-5.8064 10.5268-10.1482 14.7868-4.2638 4.2619-9.2366 7.602-14.9026 10.0184l-.0067.0028-.0067.0028c-5.6156 2.3469-11.599 3.5147-17.9312 3.5147-6.4085 0-12.4324-1.1665-18.0512-3.5147-5.5902-2.3362-10.5246-5.5964-14.7889-9.7771l-.0071-.007-.007-.007c-4.26043-4.2604-7.60239-9.1914-10.02124-14.7797l-.00711-.0165-.00681-.0165c-2.3454-5.696-3.51064-11.7963-3.51064-18.2815 0-6.2559 1.1692-12.1988 3.51466-17.8112zm60.04047-23.2172c-5.36-2.4-11.08-3.6-17.16-3.6-6.16 0-11.92 1.2-17.28 3.6-5.36 2.32-10.08 5.56-14.16 9.72s-7.28 8.92-9.6 14.28c-2.24 5.36-3.36 11.04-3.36 17.04 0 6.24 1.12 12.08 3.36 17.52 2.32 5.36 5.52 10.08 9.6 14.16 4.08 4 8.8 7.12 14.16 9.36s11.12 3.36 17.28 3.36c6.08 0 11.8-1.12 17.16-3.36 5.44-2.32 10.2-5.52 14.28-9.6 4.16-4.08 7.4-8.8 9.72-14.16s3.48-11.12 3.48-17.28c0-6-1.16-11.68-3.48-17.04s-5.56-10.12-9.72-14.28-8.92-7.4-14.28-9.72zm3.7265 62.4453c2.7012-2.7761 4.8007-5.9611 6.3043-9.5672 1.4948-3.6646 2.2492-7.6043 2.2492-11.8381 0-4.2234-.7904-8.1082-2.3523-11.6784l-.01-.0228-.0094-.023c-1.5054-3.6883-3.6055-6.9099-6.3018-9.6811l-.0098-.0101-.0096-.0102c-2.6105-2.7596-5.7071-4.9264-9.3087-6.5021l-.0072-.0031-.0071-.0032c-3.4907-1.5597-7.2512-2.346-11.3041-2.346-4.2238 0-8.0627.7905-11.5441 2.346-3.528 1.5764-6.6386 3.7498-9.3424 6.5287-2.6924 2.7671-4.7902 5.9833-6.2951 9.6648-1.4223 3.674-2.1384 7.5823-2.1384 11.7405 0 4.2272.7521 8.1614 2.2423 11.8212 1.5824 3.6097 3.7219 6.7972 6.4217 9.5743 2.6972 2.6949 5.8028 4.8294 9.3285 6.408 3.5758 1.4863 7.4251 2.2365 11.5675 2.2365 4.0602 0 7.8269-.7493 11.3207-2.2334 3.5274-1.5785 6.5912-3.712 9.2058-6.4013zm-8.4065 8.2347c-3.76 1.6-7.8 2.4-12.12 2.4-4.4 0-8.52-.8-12.36-2.4-3.76-1.68-7.08-3.96-9.96-6.84-2.88-2.96-5.16-6.36-6.84-10.2-1.6-3.92-2.4-8.12-2.4-12.6 0-4.4.76-8.56 2.28-12.48 1.6-3.92 3.84-7.36 6.72-10.32s6.2-5.28 9.96-6.96 7.88-2.52 12.36-2.52c4.32 0 8.36.84 12.12 2.52 3.84 1.68 7.16 4 9.96 6.96 2.88 2.96 5.12 6.4 6.72 10.32 1.68 3.84 2.52 8 2.52 12.48s-.8 8.68-2.4 12.6c-1.6 3.84-3.84 7.24-6.72 10.2-2.8 2.88-6.08 5.16-9.84 6.84zm160.029 18.8-60.493-60.0605.329 57.0605h-16.972v-93.879993h3.433l60.381 60.817993-.221-58.05799h16.727v94.11999zm-11.304-31.1901-63.232-63.68989h-.6v89.87999h12.96l-.345-59.8922 63.345 62.8922h.36v-90.11999h-12.72zm66.786-35.0727.005-.0116c2.418-5.5848 5.756-10.5503 10.008-14.886 4.259-4.3421 9.19-7.72791 14.782-10.15003 5.626-2.51738 11.663-3.76957 18.086-3.76957 6.347 0 12.343 1.25376 17.966 3.76962 5.588 2.42051 10.554 5.80228 14.888 10.13618 4.337 4.3369 7.72 9.3068 10.141 14.8998 2.432 5.6177 3.645 11.5688 3.645 17.8344 0 6.4181-1.21 12.4501-3.645 18.0745-2.421 5.5938-5.806 10.5269-10.148 14.7868-4.264 4.262-9.236 7.602-14.903 10.0184l-.006.0028-.007.0028c-5.616 2.3469-11.599 3.5147-17.931 3.5147-6.409 0-12.432-1.1665-18.051-3.5147-5.591-2.3362-10.525-5.5964-14.789-9.7771l-.007-.007-.007-.007c-4.261-4.2604-7.603-9.1914-10.022-14.7797l-.007-.0165-.006-.0165c-2.346-5.696-3.511-11.7963-3.511-18.2815 0-6.2559 1.169-12.1988 3.515-17.8112zm74.321 49.2628c4.16-4.08 7.4-8.8 9.72-14.16s3.48-11.12 3.48-17.28c0-6-1.16-11.68-3.48-17.04s-5.56-10.12-9.72-14.28-8.92-7.4-14.28-9.72c-5.36-2.4-11.08-3.6-17.16-3.6-6.16 0-11.92 1.2-17.28 3.6-5.36 2.32-10.08 5.56-14.16 9.72s-7.28 8.92-9.6 14.28c-2.24 5.36-3.36 11.04-3.36 17.04 0 6.24 1.12 12.08 3.36 17.52 2.32 5.36 5.52 10.08 9.6 14.16 4.08 4 8.8 7.12 14.16 9.36s11.12 3.36 17.28 3.36c6.08 0 11.8-1.12 17.16-3.36 5.44-2.32 10.2-5.52 14.28-9.6zm-10.554-10.0347c2.702-2.7768 4.802-5.9626 6.306-9.5697 1.494-3.6639 2.248-7.6028 2.248-11.8356 0-4.2234-.79-8.1082-2.352-11.6784l-.01-.0228-.01-.023c-1.505-3.6883-3.605-6.9099-6.302-9.6811l-.009-.0101-.01-.0102c-2.61-2.7596-5.707-4.9264-9.309-6.5021l-.007-.0031-.007-.0032c-3.491-1.5597-7.251-2.346-11.304-2.346-4.224 0-8.063.7905-11.544 2.346-3.528 1.5764-6.639 3.7498-9.343 6.5287-2.692 2.767-4.79 5.9832-6.295 9.6645-1.422 3.6741-2.138 7.5826-2.138 11.7408 0 4.2272.752 8.1613 2.242 11.8211 1.582 3.6096 3.722 6.797 6.421 9.574 2.698 2.695 5.803 4.8296 9.329 6.4083 3.576 1.4863 7.425 2.2366 11.568 2.2366 4.06 0 7.827-.7493 11.32-2.2334 3.528-1.5784 6.592-3.712 9.206-6.4013zm-8.406 8.2347c-3.76 1.6-7.8 2.4-12.12 2.4-4.4 0-8.52-.8-12.36-2.4-3.76-1.68-7.08-3.96-9.96-6.84-2.88-2.96-5.16-6.36-6.84-10.2-1.6-3.92-2.4-8.12-2.4-12.6 0-4.4.76-8.56 2.28-12.48 1.6-3.92 3.84-7.36 6.72-10.32s6.2-5.28 9.96-6.96 7.88-2.52 12.36-2.52c4.32 0 8.36.84 12.12 2.52 3.84 1.68 7.16 4 9.96 6.96 2.88 2.96 5.12 6.4 6.72 10.32 1.68 3.84 2.52 8 2.52 12.48s-.8 8.68-2.4 12.6c-1.6 3.84-3.84 7.24-6.72 10.2-2.8 2.88-6.08 5.16-9.84 6.84zm82.893 15.8v-94h3.157l42.126 59.6973 42.689-59.6973h3.268v94h-16.72v-48.9997l-28.284 39.9997h-2.3l-27.576-38.2829v47.2829zm14.36-53.4813 30.6 42.4813h.24l31.32-44.2921v53.2921h12.72v-90h-.24l-43.728 61.1508-43.152-61.1508h-.12v90h12.36zm130.92-37.63869h16.84v91.11999h-16.84zm139.597 83.20709-1.398.961c-1.395.9589-3.413 2.0877-5.999 3.3808l-.012.0058-.011.0056c-2.628 1.2715-5.718 2.3521-9.251 3.256-3.562.9324-7.464 1.3458-11.692 1.2635-7.02-.0835-13.401-1.3241-19.113-3.7601l-.01-.0042c-5.594-2.4214-10.384-5.7344-14.343-9.9457l-.006-.0072-.007-.0072c-3.927-4.2607-6.977-9.1088-9.146-14.5326l-.007-.0171-.007-.0172c-2.09-5.5173-3.129-11.3583-3.129-17.5085 0-6.7699 1.073-13.0126 3.248-18.7052 2.168-5.7538 5.265-10.7832 9.295-15.0655l.007-.0075.007-.0074c4.105-4.2725 8.887-7.5858 14.331-9.93122l.011-.00437c5.548-2.3537 11.576-3.51881 18.061-3.51881 5.538 0 10.596.74384 15.152 2.26264 4.437 1.47892 8.24 3.22512 11.376 5.25944l1.403.91022-6.641 15.8116-2.026-1.3975c-2.176-1.5009-4.926-2.9589-8.277-4.3615l-.026-.011-.026-.0117c-3.069-1.3887-6.543-2.1022-10.455-2.1022-3.796 0-7.393.7795-10.81 2.3394l-.009.0042-.009.004c-3.35 1.4888-6.334 3.6114-8.958 6.3857-2.539 2.6884-4.569 5.8752-6.083 9.5825l-.002.0067-.003.0067c-1.489 3.5738-2.246 7.5093-2.246 11.8308 0 4.4307.687 8.4744 2.037 12.1504 1.354 3.6869 3.26 6.8541 5.706 9.5265 2.523 2.6685 5.53 4.7491 9.04 6.2428 3.477 1.4795 7.444 2.2403 11.937 2.2403 4.281 0 7.937-.6502 11.009-1.8939l.008-.003.007-.003c3.308-1.3077 5.914-2.7747 7.872-4.3706l1.987-1.6187zm-50.531-14.6071c-2.64-2.88-4.68-6.28-6.12-10.2s-2.16-8.2-2.16-12.84c0-4.56.8-8.76 2.4-12.6 1.6-3.92 3.76-7.32 6.48-10.2 2.8-2.96 6-5.24 9.6-6.84 3.68-1.68 7.56-2.52 11.64-2.52 4.16 0 7.92.76 11.28 2.28 2.641 1.1057 4.952 2.2585 6.933 3.4584.599.3629 1.168.7301 1.707 1.1016l5.04-12c-2.96-1.92-6.6-3.59999-10.92-5.03999s-9.16-2.16001-14.52-2.16001c-6.24 0-12 1.12-17.28 3.36-5.2 2.24-9.76 5.4-13.68 9.48-3.84 4.08-6.8 8.88-8.88 14.4-2.08 5.44-3.12 11.44-3.12 18 0 5.92 1 11.52 3 16.8 2.08 5.2 5 9.84 8.76 13.92 3.76 4 8.32 7.16 13.68 9.48 5.44 2.32 11.56 3.52 18.36 3.6 4.08.08 7.8-.32 11.16-1.2 3.44-.88 6.4-1.92 8.88-3.12 2.56-1.28 4.48-2.36 5.76-3.24l-5.4-11.52c-.511.4161-1.058.8211-1.64 1.2148-1.88 1.2717-4.134 2.4268-6.76 3.4652-3.36 1.36-7.28 2.04-11.76 2.04-4.72 0-8.96-.8-12.72-2.4s-7-3.84-9.72-6.72zm172.677-68.59999v91.11999h-16.84v-37.56h-40.16v37.56h-16.84v-91.11999h16.84v37.31999h40.16v-37.31999zm-14.84 39.31999h-44.16v-37.31999h-12.84v87.11999h12.84v-37.56h44.16v37.56h12.84v-87.11999h-12.84zm68.936-39.31999h16.84v91.11999h-16.84zm-313.839 2v87.11999h12.84v-87.11999zm315.839 0v87.11999h12.84v-87.11999z" fill="#fff" fill-rule="evenodd"/></mask><path clip-rule="evenodd" d="m3.51953 30.7372.00502-.0116c2.41728-5.5848 5.75527-10.5503 10.00755-14.886 4.2586-4.3421 9.1901-7.72799 14.7821-10.15011 5.6263-2.5173 11.6625-3.76949 18.0858-3.76949 6.3473 0 12.3431 1.25375 17.9661 3.7696 5.5882 2.42051 10.5542 5.8023 14.8881 10.1362 4.3369 4.3369 7.7204 9.3068 10.1412 14.8998 2.4316 5.6177 3.6446 11.5688 3.6446 17.8344 0 6.4181-1.2101 12.4501-3.6446 18.0745-2.4212 5.5938-5.8064 10.5268-10.1482 14.7868-4.2638 4.2619-9.2366 7.602-14.9026 10.0184l-.0067.0028-.0067.0028c-5.6156 2.3469-11.599 3.5147-17.9312 3.5147-6.4085 0-12.4324-1.1665-18.0512-3.5147-5.5902-2.3362-10.5246-5.5964-14.7889-9.7771l-.0071-.007-.007-.007c-4.26043-4.2604-7.60239-9.1914-10.02124-14.7797l-.00711-.0165-.00681-.0165c-2.3454-5.696-3.51064-11.7963-3.51064-18.2815 0-6.2559 1.1692-12.1988 3.51466-17.8112zm60.04047-23.2172c-5.36-2.4-11.08-3.6-17.16-3.6-6.16 0-11.92 1.2-17.28 3.6-5.36 2.32-10.08 5.56-14.16 9.72s-7.28 8.92-9.6 14.28c-2.24 5.36-3.36 11.04-3.36 17.04 0 6.24 1.12 12.08 3.36 17.52 2.32 5.36 5.52 10.08 9.6 14.16 4.08 4 8.8 7.12 14.16 9.36s11.12 3.36 17.28 3.36c6.08 0 11.8-1.12 17.16-3.36 5.44-2.32 10.2-5.52 14.28-9.6 4.16-4.08 7.4-8.8 9.72-14.16s3.48-11.12 3.48-17.28c0-6-1.16-11.68-3.48-17.04s-5.56-10.12-9.72-14.28-8.92-7.4-14.28-9.72zm3.7265 62.4453c2.7012-2.7761 4.8007-5.9611 6.3043-9.5672 1.4948-3.6646 2.2492-7.6043 2.2492-11.8381 0-4.2234-.7904-8.1082-2.3523-11.6784l-.01-.0228-.0094-.023c-1.5054-3.6883-3.6055-6.9099-6.3018-9.6811l-.0098-.0101-.0096-.0102c-2.6105-2.7596-5.7071-4.9264-9.3087-6.5021l-.0072-.0031-.0071-.0032c-3.4907-1.5597-7.2512-2.346-11.3041-2.346-4.2238 0-8.0627.7905-11.5441 2.346-3.528 1.5764-6.6386 3.7498-9.3424 6.5287-2.6924 2.7671-4.7902 5.9833-6.2951 9.6648-1.4223 3.674-2.1384 7.5823-2.1384 11.7405 0 4.2272.7521 8.1614 2.2423 11.8212 1.5824 3.6097 3.7219 6.7972 6.4217 9.5743 2.6972 2.6949 5.8028 4.8294 9.3285 6.408 3.5758 1.4863 7.4251 2.2365 11.5675 2.2365 4.0602 0 7.8269-.7493 11.3207-2.2334 3.5274-1.5785 6.5912-3.712 9.2058-6.4013zm-8.4065 8.2347c-3.76 1.6-7.8 2.4-12.12 2.4-4.4 0-8.52-.8-12.36-2.4-3.76-1.68-7.08-3.96-9.96-6.84-2.88-2.96-5.16-6.36-6.84-10.2-1.6-3.92-2.4-8.12-2.4-12.6 0-4.4.76-8.56 2.28-12.48 1.6-3.92 3.84-7.36 6.72-10.32s6.2-5.28 9.96-6.96 7.88-2.52 12.36-2.52c4.32 0 8.36.84 12.12 2.52 3.84 1.68 7.16 4 9.96 6.96 2.88 2.96 5.12 6.4 6.72 10.32 1.68 3.84 2.52 8 2.52 12.48s-.8 8.68-2.4 12.6c-1.6 3.84-3.84 7.24-6.72 10.2-2.8 2.88-6.08 5.16-9.84 6.84zm160.029 18.8-60.493-60.0605.329 57.0605h-16.972v-93.879993h3.433l60.381 60.817993-.221-58.05799h16.727v94.11999zm-11.304-31.1901-63.232-63.68989h-.6v89.87999h12.96l-.345-59.8922 63.345 62.8922h.36v-90.11999h-12.72zm66.786-35.0727.005-.0116c2.418-5.5848 5.756-10.5503 10.008-14.886 4.259-4.3421 9.19-7.72791 14.782-10.15003 5.626-2.51738 11.663-3.76957 18.086-3.76957 6.347 0 12.343 1.25376 17.966 3.76962 5.588 2.42051 10.554 5.80228 14.888 10.13618 4.337 4.3369 7.72 9.3068 10.141 14.8998 2.432 5.6177 3.645 11.5688 3.645 17.8344 0 6.4181-1.21 12.4501-3.645 18.0745-2.421 5.5938-5.806 10.5269-10.148 14.7868-4.264 4.262-9.236 7.602-14.903 10.0184l-.006.0028-.007.0028c-5.616 2.3469-11.599 3.5147-17.931 3.5147-6.409 0-12.432-1.1665-18.051-3.5147-5.591-2.3362-10.525-5.5964-14.789-9.7771l-.007-.007-.007-.007c-4.261-4.2604-7.603-9.1914-10.022-14.7797l-.007-.0165-.006-.0165c-2.346-5.696-3.511-11.7963-3.511-18.2815 0-6.2559 1.169-12.1988 3.515-17.8112zm74.321 49.2628c4.16-4.08 7.4-8.8 9.72-14.16s3.48-11.12 3.48-17.28c0-6-1.16-11.68-3.48-17.04s-5.56-10.12-9.72-14.28-8.92-7.4-14.28-9.72c-5.36-2.4-11.08-3.6-17.16-3.6-6.16 0-11.92 1.2-17.28 3.6-5.36 2.32-10.08 5.56-14.16 9.72s-7.28 8.92-9.6 14.28c-2.24 5.36-3.36 11.04-3.36 17.04 0 6.24 1.12 12.08 3.36 17.52 2.32 5.36 5.52 10.08 9.6 14.16 4.08 4 8.8 7.12 14.16 9.36s11.12 3.36 17.28 3.36c6.08 0 11.8-1.12 17.16-3.36 5.44-2.32 10.2-5.52 14.28-9.6zm-10.554-10.0347c2.702-2.7768 4.802-5.9626 6.306-9.5697 1.494-3.6639 2.248-7.6028 2.248-11.8356 0-4.2234-.79-8.1082-2.352-11.6784l-.01-.0228-.01-.023c-1.505-3.6883-3.605-6.9099-6.302-9.6811l-.009-.0101-.01-.0102c-2.61-2.7596-5.707-4.9264-9.309-6.5021l-.007-.0031-.007-.0032c-3.491-1.5597-7.251-2.346-11.304-2.346-4.224 0-8.063.7905-11.544 2.346-3.528 1.5764-6.639 3.7498-9.343 6.5287-2.692 2.767-4.79 5.9832-6.295 9.6645-1.422 3.6741-2.138 7.5826-2.138 11.7408 0 4.2272.752 8.1613 2.242 11.8211 1.582 3.6096 3.722 6.797 6.421 9.574 2.698 2.695 5.803 4.8296 9.329 6.4083 3.576 1.4863 7.425 2.2366 11.568 2.2366 4.06 0 7.827-.7493 11.32-2.2334 3.528-1.5784 6.592-3.712 9.206-6.4013zm-8.406 8.2347c-3.76 1.6-7.8 2.4-12.12 2.4-4.4 0-8.52-.8-12.36-2.4-3.76-1.68-7.08-3.96-9.96-6.84-2.88-2.96-5.16-6.36-6.84-10.2-1.6-3.92-2.4-8.12-2.4-12.6 0-4.4.76-8.56 2.28-12.48 1.6-3.92 3.84-7.36 6.72-10.32s6.2-5.28 9.96-6.96 7.88-2.52 12.36-2.52c4.32 0 8.36.84 12.12 2.52 3.84 1.68 7.16 4 9.96 6.96 2.88 2.96 5.12 6.4 6.72 10.32 1.68 3.84 2.52 8 2.52 12.48s-.8 8.68-2.4 12.6c-1.6 3.84-3.84 7.24-6.72 10.2-2.8 2.88-6.08 5.16-9.84 6.84zm82.893 15.8v-94h3.157l42.126 59.6973 42.689-59.6973h3.268v94h-16.72v-48.9997l-28.284 39.9997h-2.3l-27.576-38.2829v47.2829zm14.36-53.4813 30.6 42.4813h.24l31.32-44.2921v53.2921h12.72v-90h-.24l-43.728 61.1508-43.152-61.1508h-.12v90h12.36zm130.92-37.63869h16.84v91.11999h-16.84zm139.597 83.20709-1.398.961c-1.395.9589-3.413 2.0877-5.999 3.3808l-.012.0058-.011.0056c-2.628 1.2715-5.718 2.3521-9.251 3.256-3.562.9324-7.464 1.3458-11.692 1.2635-7.02-.0835-13.401-1.3241-19.113-3.7601l-.01-.0042c-5.594-2.4214-10.384-5.7344-14.343-9.9457l-.006-.0072-.007-.0072c-3.927-4.2607-6.977-9.1088-9.146-14.5326l-.007-.0171-.007-.0172c-2.09-5.5173-3.129-11.3583-3.129-17.5085 0-6.7699 1.073-13.0126 3.248-18.7052 2.168-5.7538 5.265-10.7832 9.295-15.0655l.007-.0075.007-.0074c4.105-4.2725 8.887-7.5858 14.331-9.93122l.011-.00437c5.548-2.3537 11.576-3.51881 18.061-3.51881 5.538 0 10.596.74384 15.152 2.26264 4.437 1.47892 8.24 3.22512 11.376 5.25944l1.403.91022-6.641 15.8116-2.026-1.3975c-2.176-1.5009-4.926-2.9589-8.277-4.3615l-.026-.011-.026-.0117c-3.069-1.3887-6.543-2.1022-10.455-2.1022-3.796 0-7.393.7795-10.81 2.3394l-.009.0042-.009.004c-3.35 1.4888-6.334 3.6114-8.958 6.3857-2.539 2.6884-4.569 5.8752-6.083 9.5825l-.002.0067-.003.0067c-1.489 3.5738-2.246 7.5093-2.246 11.8308 0 4.4307.687 8.4744 2.037 12.1504 1.354 3.6869 3.26 6.8541 5.706 9.5265 2.523 2.6685 5.53 4.7491 9.04 6.2428 3.477 1.4795 7.444 2.2403 11.937 2.2403 4.281 0 7.937-.6502 11.009-1.8939l.008-.003.007-.003c3.308-1.3077 5.914-2.7747 7.872-4.3706l1.987-1.6187zm-50.531-14.6071c-2.64-2.88-4.68-6.28-6.12-10.2s-2.16-8.2-2.16-12.84c0-4.56.8-8.76 2.4-12.6 1.6-3.92 3.76-7.32 6.48-10.2 2.8-2.96 6-5.24 9.6-6.84 3.68-1.68 7.56-2.52 11.64-2.52 4.16 0 7.92.76 11.28 2.28 2.641 1.1057 4.952 2.2585 6.933 3.4584.599.3629 1.168.7301 1.707 1.1016l5.04-12c-2.96-1.92-6.6-3.59999-10.92-5.03999s-9.16-2.16001-14.52-2.16001c-6.24 0-12 1.12-17.28 3.36-5.2 2.24-9.76 5.4-13.68 9.48-3.84 4.08-6.8 8.88-8.88 14.4-2.08 5.44-3.12 11.44-3.12 18 0 5.92 1 11.52 3 16.8 2.08 5.2 5 9.84 8.76 13.92 3.76 4 8.32 7.16 13.68 9.48 5.44 2.32 11.56 3.52 18.36 3.6 4.08.08 7.8-.32 11.16-1.2 3.44-.88 6.4-1.92 8.88-3.12 2.56-1.28 4.48-2.36 5.76-3.24l-5.4-11.52c-.511.4161-1.058.8211-1.64 1.2148-1.88 1.2717-4.134 2.4268-6.76 3.4652-3.36 1.36-7.28 2.04-11.76 2.04-4.72 0-8.96-.8-12.72-2.4s-7-3.84-9.72-6.72zm172.677-68.59999v91.11999h-16.84v-37.56h-40.16v37.56h-16.84v-91.11999h16.84v37.31999h40.16v-37.31999zm-14.84 39.31999h-44.16v-37.31999h-12.84v87.11999h12.84v-37.56h44.16v37.56h12.84v-87.11999h-12.84zm68.936-39.31999h16.84v91.11999h-16.84zm-313.839 2v87.11999h12.84v-87.11999zm315.839 0v87.11999h12.84v-87.11999z" fill-rule="evenodd" mask="url(#a)" stroke="#9ed0e0" stroke-width="2"/></svg>