<svg fill="none" height="40" viewBox="0 0 40 40" width="40" xmlns="http://www.w3.org/2000/svg"><path d="m13 3.33301h14c5.3333 0 9.6666 4.33333 9.6666 9.66669v14c0 2.5637-1.0184 5.0225-2.8313 6.8353-1.8128 1.8129-4.2716 2.8313-6.8353 2.8313h-14c-5.33335 0-9.66669-4.3333-9.66669-9.6666v-14c0-2.5638 1.01845-5.02254 2.8313-6.83539 1.81286-1.81285 4.27159-2.8313 6.83539-2.8313zm-.3334 3.33333c-1.5913 0-3.11738.63214-4.24259 1.75736-1.12522 1.12522-1.75736 2.6513-1.75736 4.2426v14.6667c0 3.3167 2.68333 6 5.99995 6h14.6667c1.5913 0 3.1174-.6321 4.2427-1.7573 1.1252-1.1253 1.7573-2.6514 1.7573-4.2427v-14.6667c0-3.31663-2.6833-5.99996-6-5.99996zm16.0834 2.5c.5525 0 1.0824.21949 1.4731.6102.3907.39066.6102.92056.6102 1.47316 0 .5525-.2195 1.0824-.6102 1.4731s-.9206.6102-1.4731.6102c-.5526 0-1.0825-.2195-1.4732-.6102s-.6102-.9206-.6102-1.4731c0-.5526.2195-1.0825.6102-1.47316.3907-.39071.9206-.6102 1.4732-.6102zm-8.75 2.49996c2.2101 0 4.3297.878 5.8925 2.4408s2.4408 3.6824 2.4408 5.8926c0 2.2101-.878 4.3297-2.4408 5.8925s-3.6824 2.4408-5.8925 2.4408c-2.2102 0-4.3298-.878-5.8926-2.4408s-2.4408-3.6824-2.4408-5.8925c0-2.2102.878-4.3298 2.4408-5.8926s3.6824-2.4408 5.8926-2.4408zm0 3.3334c-1.3261 0-2.5979.5268-3.5356 1.4644-.9376.9377-1.4644 2.2095-1.4644 3.5356s.5268 2.5978 1.4644 3.5355c.9377.9377 2.2095 1.4645 3.5356 1.4645s2.5978-.5268 3.5355-1.4645 1.4645-2.2094 1.4645-3.5355-.5268-2.5979-1.4645-3.5356c-.9377-.9376-2.2094-1.4644-3.5355-1.4644z" fill="#67b0c7"/></svg>