<svg fill="none" height="32" viewBox="0 0 33 32" width="33" xmlns="http://www.w3.org/2000/svg" xmlns:xlink="http://www.w3.org/1999/xlink"><clipPath id="a"><path d="m.5 0h32v32h-32z"/></clipPath><g clip-path="url(#a)"><path d="m20.6569 13.6455c0 .4711-.1871.9228-.5201 1.2558-.3331.3331-.7848.5202-1.2558.5202h-2.9599v2.9599c0 .471-.1871.9228-.5201 1.2558-.3331.3331-.7848.5202-1.2558.5202s-.9227-.1871-1.2557-.5202c-.3331-.333-.5202-.7848-.5202-1.2558v-2.9599h-2.95985c-.47101 0-.92272-.1871-1.25577-.5202-.33305-.333-.52015-.7847-.52015-1.2558 0-.471.1871-.9227.52015-1.2557.33305-.3331.78476-.5202 1.25577-.5202h2.95985v-2.95995c0-.47101.1871-.92273.5202-1.25579.333-.33306.7847-.52017 1.2557-.52017s.9227.18711 1.2558.52017c.333.33306.5201.78478.5201 1.25579v2.95995h2.9599c.471 0 .9227.1871 1.2558.5202.333.333.5201.7847.5201 1.2557zm11.32 17.8322c-.165.1655-.361.2969-.5769.3865-.2159.0897-.4473.1358-.681.1358-.2338 0-.4652-.0461-.6811-.1358-.2158-.0896-.4119-.221-.5769-.3865l-7.0282-7.0284c-2.746 2.1073-6.1908 3.0912-9.6356 2.752-3.44475-.3392-6.63151-1.9761-8.91383-4.5785-2.28232-2.6025-3.489291-5.9756-3.376068-9.4353.113224-3.45965 1.538158-6.7467 3.985758-9.19435 2.44759-2.44765 5.73454-3.872621 9.19414-3.9858476 3.4596-.1132264 6.8327 1.0937676 9.4351 3.3761476 2.6024 2.28237 4.2392 5.46921 4.5783 8.91405.3392 3.4448-.6446 6.8897-2.7519 9.6359l7.0356 7.0342c.3316.334.5171.7859.5157 1.2566-.0014.4706-.1895.9214-.5231 1.2535zm-17.8317-7.7684c1.9904 0 3.9361-.5902 5.591-1.696 1.655-1.1059 2.9448-2.6776 3.7065-4.5165s.961-3.8624.5727-5.8146c-.3883-1.95218-1.3468-3.74537-2.7542-5.15281-1.4074-1.40745-3.2005-2.36593-5.1527-2.75424-1.9521-.38831-3.9756-.18902-5.8144.57269-1.83889.7617-3.4106 2.0516-4.5164 3.70657-1.10579 1.65498-1.69601 3.60069-1.69601 5.59109.00314 2.6682 1.0644 5.2261 2.951 7.1127 1.8866 1.8867 4.44451 2.948 7.11251 2.9511z" fill="#f5f5f5"/></g></svg>